Coordinates
version=1
nRows=15
nColumns=42
inDegrees=yes

Units are S.I. units (second, meters, Newtons, ...)
If the header above contains a line with 'inDegrees', this indicates whether rotational values are in degrees (yes) or radians (no).

endheader
time	pelvis_tilt	pelvis_list	pelvis_rotation	pelvis_tx	pelvis_ty	pelvis_tz	hip_flexion_r	hip_adduction_r	hip_rotation_r	knee_angle_r	knee_adduction_r	knee_angle_r_beta	ankle_angle_r	subtalar_angle_r	mtp_angle_r	hip_flexion_l	hip_adduction_l	hip_rotation_l	knee_angle_l	knee_adduction_l	knee_angle_l_beta	ankle_angle_l	subtalar_angle_l	mtp_angle_l	lumbar_extension	lumbar_bending	lumbar_rotation	arm_flex_r	arm_add_r	arm_rot_r	elbow_flex_r	pro_sup_r	wrist_flex_r	wrist_dev_r	arm_flex_l	arm_add_l	arm_rot_l	elbow_flex_l	pro_sup_l	wrist_flex_l	wrist_dev_l
      0.00000000	     11.33408670	      4.43555025	     -4.26244076	     -1.94080943	      0.96544785	      0.23999585	     -5.99056508	     -8.42806751	     -9.90734461	     63.96188058	     -6.92338995	      1.11634541	      5.16022422	    -11.78571997	     -9.32074774	      3.72629478	      6.15996312	    -23.11986387	     19.64145028	     -6.32564044	      0.34280798	     14.60120622	     25.29422446	     -9.32074774	    -26.46238129	     -5.17665126	     -1.66441134	     -2.79773131	     -8.28771315	      6.24991608	     31.13345971	     90.00000001	      0.00000000	      0.00000000	     -5.01454225	     -9.84702230	     -4.79410743	     34.98922289	     90.00000001	      0.00000000	      0.00000000
      0.01000000	     11.31905537	      4.30717515	     -4.04596021	     -1.93483355	      0.96660800	      0.23929819	     -5.19478257	     -8.21216566	     -9.94674515	     64.05196178	     -6.82986340	      1.11791763	      5.35158023	    -11.60162823	     -9.30733355	      3.24131124	      6.08448675	    -23.15176805	     19.48620136	     -6.29894114	      0.34009837	     14.64456784	     25.17084218	     -9.30733355	    -26.51335676	     -4.89361794	     -1.87728795	     -2.90961781	     -8.25831249	      6.25850945	     31.14176500	     90.00000001	      0.00000000	      0.00000000	     -4.62423108	    -10.01963501	     -4.79099635	     35.19887715	     90.00000001	      0.00000000	      0.00000000
      0.02000000	     11.20955646	      3.95271782	     -3.94660498	     -1.92676210	      0.96796602	      0.23855229	     -3.98255288	     -7.66922418	     -9.97119950	     64.14972912	     -6.96198278	      1.11962399	      6.24321585	    -11.58017064	     -9.28706011	      2.43538259	      5.91003807	    -22.86986199	     18.73296375	     -6.26703678	      0.32695190	     14.93976230	     25.44014361	     -9.28706011	    -26.43304720	     -4.35515438	     -1.95832923	     -2.96721002	     -8.28651534	      6.26155605	     30.96660896	     90.00000001	      0.00000000	      0.00000000	     -4.19880767	    -10.15460335	     -4.70906148	     35.40903459	     90.00000001	      0.00000000	      0.00000000
      0.03000000	     11.11986741	      3.65316861	     -3.73381943	     -1.91686550	      0.96960412	      0.23777034	     -2.63961931	     -7.16474151	    -10.02597848	     64.04222677	     -6.93121906	      1.11774772	      7.16105149	    -11.33953762	     -9.26358467	      1.48806578	      5.74029667	    -22.57901520	     18.01926707	     -6.12593057	      0.31449554	     15.26300162	     25.77667694	     -9.26358467	    -26.39202679	     -3.87156218	     -2.12843203	     -3.10756142	     -8.24752748	      6.23559968	     30.81533822	     90.00000001	      0.00000000	      0.00000000	     -3.60862942	    -10.41815736	     -4.61970986	     35.71330214	     90.00000001	      0.00000000	      0.00000000
      0.04000000	     11.02145530	      3.33073017	     -3.48284143	     -1.90532699	      0.97133046	      0.23679236	     -1.13844783	     -6.63738874	    -10.12921357	     63.75620244	     -6.85773354	      1.11275565	      8.15135202	    -10.97510585	     -9.23895662	      0.39949720	      5.56355876	    -22.33706981	     17.22113161	     -6.00565307	      0.30056545	     15.60081875	     26.16171840	     -9.23895662	    -26.33365747	     -3.31291328	     -2.35081178	     -3.29149399	     -8.20083941	      6.16686086	     30.68282451	     90.00000001	      0.00000000	      0.00000000	     -2.98238224	    -10.72462477	     -4.52356219	     36.12018586	     90.00000001	      0.00000000	      0.00000000
      0.05000000	     11.20163348	      3.01113529	     -3.14307188	     -1.89222962	      0.97348016	      0.23573757	      0.02681440	     -6.14288446	    -10.44998702	     63.05553530	     -6.77036239	      1.10052670	      9.57170305	     -9.88936763	     -9.18613866	     -1.22083609	      5.37507781	    -22.05145717	     16.18217864	     -5.75880994	      0.28243230	     16.07546544	     27.15913020	     -9.18613866	    -26.53097212	     -2.73907923	     -2.66386407	     -3.52267229	     -8.06996623	      5.87188148	     30.53558293	     90.00000001	      0.00000000	      0.00000000	     -2.31634487	    -11.12197781	     -4.25754289	     36.63613147	     90.00000001	      0.00000000	      0.00000000
      0.06000000	     11.21546947	      2.65692842	     -2.83796584	     -1.87836108	      0.97521141	      0.23454492	      1.48357281	     -5.58089798	    -10.94148605	     62.13226500	     -6.87887942	      1.08441260	     10.71298575	     -8.91565902	     -9.11943893	     -2.65887528	      5.15271025	    -22.04677218	     15.19730119	     -5.63746320	      0.26524294	     16.40047075	     27.94001793	     -9.11943893	    -26.53918824	     -2.11180806	     -2.90844554	     -3.81472853	     -8.01120067	      5.59761224	     30.44799060	     90.00000001	      0.00000000	      0.00000000	     -1.67289991	    -11.45482869	     -4.12533925	     37.31022248	     90.00000001	      0.00000000	      0.00000000
      0.07000000	     11.12967945	      2.33747087	     -2.56552105	     -1.86408107	      0.97658841	      0.23358817	      3.06211125	     -5.04552100	    -11.25273061	     60.95982274	     -6.77461766	      1.06394962	     11.72879651	     -8.28796106	     -9.05720828	     -4.03718381	      4.93121040	    -21.96016869	     14.18404293	     -5.44996329	      0.24755825	     16.75332567	     28.64917431	     -9.05720828	    -26.44212660	     -1.56288542	     -3.17992730	     -4.09759527	     -7.91226056	      5.40581548	     30.37249175	     90.00000001	      0.00000000	      0.00000000	     -1.04461511	    -11.84882017	     -4.10250321	     37.99997263	     90.00000001	      0.00000000	      0.00000000
      0.08000000	     10.73952248	      2.14194875	     -2.34927218	     -1.84984950	      0.97718416	      0.23254368	      5.03215894	     -4.66149092	    -11.38414481	     59.64090841	     -6.51674844	      1.04093022	     12.35800479	     -8.15412713	     -9.03720820	     -4.97316139	      4.83700613	    -22.02972384	     13.34576039	     -5.33591824	      0.23292746	     17.00568741	     28.79331778	     -9.03720820	    -26.02292081	     -1.14552676	     -3.45012475	     -4.42255874	     -7.85137374	      5.35824470	     30.34006077	     90.00000001	      0.00000000	      0.00000000	     -0.43551512	    -12.19636724	     -4.14214474	     38.69355830	     90.00000001	      0.00000000	      0.00000000
      0.09000000	     10.95072669	      1.82976095	     -2.05807362	     -1.83475984	      0.97835651	      0.23173128	      6.00825628	     -4.11841005	    -11.72282507	     57.67221142	     -6.31418906	      1.00656998	     13.30999001	     -7.57412233	     -8.97771418	     -6.88043873	      4.59284684	    -21.91219506	     12.04689576	     -5.01905223	      0.21025800	     17.34895545	     30.02028424	     -8.97771418	    -26.17686010	     -0.62424169	     -3.69515491	     -4.75851092	     -7.72339650	      5.03454183	     30.27238273	     90.00000001	      0.00000000	      0.00000000	      0.14516779	    -12.60147335	     -4.14614101	     39.61490787	     90.00000001	      0.00000000	      0.00000000
      0.10000000	     10.65558729	      1.69154300	     -1.89537342	     -1.82025925	      0.97832809	      0.23090325	      7.65229799	     -3.79654722	    -11.88567040	     55.69086793	     -6.01465890	      0.97198901	     13.94525015	     -7.45140553	     -8.94744556	     -8.03098653	      4.54501733	    -21.87881417	     11.03825878	     -4.80901417	      0.19265396	     17.69690635	     30.60527950	     -8.94744556	    -25.82053250	     -0.30596723	     -3.90520451	     -5.07536974	     -7.65528253	      4.91777395	     30.20745239	     90.00000001	      0.00000000	      0.00000000	      0.67351292	    -12.96772979	     -4.20083501	     40.49429813	     90.00000001	      0.00000000	      0.00000000
      0.11000000	     10.82325414	      1.52300375	     -1.65174740	     -1.80534981	      0.97864014	      0.23013685	      8.48669525	     -3.45048814	    -12.19623928	     53.16805245	     -5.70150323	      0.92795757	     14.40774707	     -7.21369536	     -8.89592091	     -9.76651421	      4.41771804	    -22.06815838	      9.93254329	     -4.56412221	      0.17335558	     17.95349358	     31.59264483	     -8.89592091	    -25.92225102	      0.04181922	     -4.18776711	     -5.40764116	     -7.54512649	      4.66882240	     30.21295270	     90.00000001	      0.00000000	      0.00000000	      1.17440635	    -13.35253323	     -4.23428718	     41.41641183	     90.00000001	      0.00000000	      0.00000000
      0.12000000	     10.42719141	      1.54700640	     -1.55552378	     -1.79113492	      0.97759008	      0.22946229	     10.07396966	     -3.29557828	    -12.33878850	     50.71744231	     -5.42313174	      0.88518636	     14.79340769	     -7.15465474	     -8.87227658	    -10.71181745	      4.55494667	    -22.15643675	      9.04833165	     -4.45421953	      0.15792318	     18.31340886	     31.99609490	     -8.87227658	    -25.45140446	      0.15089245	     -4.39978432	     -5.72029945	     -7.44875194	      4.59570741	     30.18610958	     90.00000001	      0.00000000	      0.00000000	      1.64738942	    -13.71595778	     -4.28572127	     42.32130933	     90.00000001	      0.00000000	      0.00000000
      0.13000000	     10.71470489	      1.42490001	     -1.37301103	     -1.77626956	      0.97725508	      0.22899045	     10.52403633	     -2.97308209	    -12.71359113	     47.62873135	     -5.17087617	      0.83127818	     15.04791515	     -6.92448516	     -8.82098817	    -12.57725633	      4.40162892	    -22.39069840	      7.99604428	     -4.07398286	      0.13955730	     18.60196280	     33.09747184	     -8.82098817	    -25.65688171	      0.40289600	     -4.63215844	     -6.03748958	     -7.35344306	      4.36901671	     30.20988578	     90.00000001	      0.00000000	      0.00000000	      2.10830193	    -14.10378115	     -4.30418991	     43.29126339	     90.00000001	      0.00000000	      0.00000000
      0.14000000	     10.28292581	      1.63278303	     -1.33074156	     -1.76232679	      0.97530747	      0.22849400	     11.97631129	     -2.99372185	    -12.85950091	     44.76435256	     -4.97211885	      0.78128534	     15.21997432	     -6.70167365	     -8.80079356	    -13.36866948	      4.74660718	    -22.51663655	      7.28359585	     -4.05881656	      0.12712273	     19.03145391	     33.36261536	     -8.80079356	    -25.15085065	      0.27636233	     -4.85628441	     -6.31892743	     -7.25187803	      4.32271121	     30.20094882	     90.00000001	      0.00000000	      0.00000000	      2.58077968	    -14.50224643	     -4.34654803	     44.16881248	     90.00000001	      0.00000000	      0.00000000
